<svg width="29" height="29" viewBox="0 0 29 29" fill="none" xmlns="http://www.w3.org/2000/svg">
<path id="Vector" d="M14.6059 29C10.5479 29 7.09907 27.582 4.25944 24.7459C1.41981 21.9099 0 18.4654 0 14.4125C0 10.7182 1.20499 7.51501 3.61496 4.80294C6.02493 2.09088 9.0094 0.489898 12.5684 0C12.667 0 12.7637 0.00364696 12.8587 0.0109407C12.9536 0.0182345 13.0467 0.0285668 13.138 0.0419387C12.5221 0.900171 12.0346 1.85444 11.6756 2.90474C11.3165 3.95504 11.137 5.05579 11.137 6.20699C11.137 9.44907 12.2726 12.2043 14.5438 14.4726C16.815 16.741 19.5743 17.8758 22.8217 17.877C23.9792 17.877 25.0826 17.6977 26.1318 17.3391C27.181 16.9805 28.123 16.4936 28.958 15.8785C28.9726 15.9697 28.983 16.0627 28.989 16.1575C28.9951 16.2523 28.9988 16.349 29 16.4474C28.5326 20.0007 26.9412 22.9808 24.2257 25.3878C21.5102 27.7947 18.3048 28.9988 14.6059 29Z" fill="#120071"/>
</svg>
