<svg width="29" height="29" viewBox="0 0 29 29" fill="none" xmlns="http://www.w3.org/2000/svg">
<path d="M14.5 21.0909C12.6765 21.0909 11.1224 20.4481 9.83759 19.1624C8.5528 17.8767 7.90997 16.3226 7.90909 14.5C7.90821 12.6774 8.55105 11.1233 9.83759 9.83759C11.1241 8.55192 12.6783 7.90909 14.5 7.90909C16.3217 7.90909 17.8763 8.55192 19.1637 9.83759C20.4512 11.1233 21.0935 12.6774 21.0909 14.5C21.0883 16.3226 20.4454 17.8772 19.1624 19.1637C17.8794 20.4503 16.3252 21.0927 14.5 21.0909ZM5.27273 15.8182H0V13.1818H5.27273V15.8182ZM29 15.8182H23.7273V13.1818H29V15.8182ZM13.1818 5.27273V0H15.8182V5.27273H13.1818ZM13.1818 29V23.7273H15.8182V29H13.1818ZM7.11818 8.89773L3.78977 5.70114L5.66818 3.75682L8.83182 7.05227L7.11818 8.89773ZM23.3318 25.2432L20.1352 21.9148L21.8818 20.1023L25.2102 23.2989L23.3318 25.2432ZM20.1023 7.11818L23.2989 3.78977L25.2432 5.66818L21.9477 8.83182L20.1023 7.11818ZM3.75682 23.3318L7.08523 20.1352L8.89773 21.8818L5.70114 25.2102L3.75682 23.3318Z" fill="black"/>
</svg>
